<svg xmlns="http://www.w3.org/2000/svg" xmlns:xlink="http://www.w3.org/1999/xlink" width="500" zoomAndPan="magnify" viewBox="0 0 375 374.999991" height="500" preserveAspectRatio="xMidYMid meet" version="1.0"><defs><g/><clipPath id="3b9f4249bb"><path d="M 62.078125 84.902344 L 312.964844 84.902344 L 312.964844 290.097656 L 62.078125 290.097656 Z M 62.078125 84.902344 " clip-rule="nonzero"/></clipPath><clipPath id="319571b803"><path d="M 84.578125 84.902344 L 290.421875 84.902344 C 296.390625 84.902344 302.113281 87.273438 306.332031 91.492188 C 310.550781 95.710938 312.921875 101.433594 312.921875 107.402344 L 312.921875 267.597656 C 312.921875 273.566406 310.550781 279.289062 306.332031 283.507812 C 302.113281 287.726562 296.390625 290.097656 290.421875 290.097656 L 84.578125 290.097656 C 72.152344 290.097656 62.078125 280.023438 62.078125 267.597656 L 62.078125 107.402344 C 62.078125 94.976562 72.152344 84.902344 84.578125 84.902344 Z M 84.578125 84.902344 " clip-rule="nonzero"/></clipPath><clipPath id="097f3ef403"><path d="M 0.078125 0.902344 L 250.960938 0.902344 L 250.960938 206.097656 L 0.078125 206.097656 Z M 0.078125 0.902344 " clip-rule="nonzero"/></clipPath><clipPath id="dcc4a7f818"><path d="M 22.578125 0.902344 L 228.421875 0.902344 C 234.390625 0.902344 240.113281 3.273438 244.332031 7.492188 C 248.550781 11.710938 250.921875 17.433594 250.921875 23.402344 L 250.921875 183.597656 C 250.921875 189.566406 248.550781 195.289062 244.332031 199.507812 C 240.113281 203.726562 234.390625 206.097656 228.421875 206.097656 L 22.578125 206.097656 C 10.152344 206.097656 0.078125 196.023438 0.078125 183.597656 L 0.078125 23.402344 C 0.078125 10.976562 10.152344 0.902344 22.578125 0.902344 Z M 22.578125 0.902344 " clip-rule="nonzero"/></clipPath><clipPath id="2f326401dd"><rect x="0" width="251" y="0" height="207"/></clipPath><clipPath id="c03a5873a1"><rect x="0" width="195" y="0" height="130"/></clipPath></defs><g clip-path="url(#3b9f4249bb)"><g clip-path="url(#319571b803)"><g transform="matrix(1, 0, 0, 1, 62, 84)"><g clip-path="url(#2f326401dd)"><g clip-path="url(#097f3ef403)"><g clip-path="url(#dcc4a7f818)"><path fill="#00357a" d="M 0.078125 0.902344 L 250.964844 0.902344 L 250.964844 206.097656 L 0.078125 206.097656 Z M 0.078125 0.902344 " fill-opacity="1" fill-rule="nonzero"/></g></g></g></g></g></g><g transform="matrix(1, 0, 0, 1, 90, 122)"><g clip-path="url(#c03a5873a1)"><g fill="#ffffff" fill-opacity="1"><g transform="translate(1.066288, 104.515654)"><g><path d="M 5.25 -19.140625 L 20.59375 -20.828125 C 20.976562 -17.703125 21.957031 -15.382812 23.53125 -13.875 C 25.113281 -12.375 27.203125 -11.625 29.796875 -11.625 C 33.078125 -11.625 35.863281 -13.128906 38.15625 -16.140625 C 40.445312 -19.148438 41.914062 -25.394531 42.5625 -34.875 C 38.570312 -30.25 33.582031 -27.9375 27.59375 -27.9375 C 21.082031 -27.9375 15.46875 -30.445312 10.75 -35.46875 C 6.03125 -40.5 3.671875 -47.039062 3.671875 -55.09375 C 3.671875 -63.476562 6.160156 -70.238281 11.140625 -75.375 C 16.128906 -80.507812 22.484375 -83.078125 30.203125 -83.078125 C 38.585938 -83.078125 45.46875 -79.832031 50.84375 -73.34375 C 56.226562 -66.851562 58.921875 -56.175781 58.921875 -41.3125 C 58.921875 -26.1875 56.117188 -15.273438 50.515625 -8.578125 C 44.910156 -1.878906 37.609375 1.46875 28.609375 1.46875 C 22.140625 1.46875 16.910156 -0.25 12.921875 -3.6875 C 8.929688 -7.132812 6.375 -12.285156 5.25 -19.140625 Z M 41.140625 -53.796875 C 41.140625 -58.910156 39.960938 -62.878906 37.609375 -65.703125 C 35.265625 -68.523438 32.550781 -69.9375 29.46875 -69.9375 C 26.53125 -69.9375 24.09375 -68.773438 22.15625 -66.453125 C 20.21875 -64.140625 19.25 -60.351562 19.25 -55.09375 C 19.25 -49.75 20.300781 -45.820312 22.40625 -43.3125 C 24.507812 -40.8125 27.144531 -39.5625 30.3125 -39.5625 C 33.351562 -39.5625 35.914062 -40.765625 38 -43.171875 C 40.09375 -45.585938 41.140625 -49.128906 41.140625 -53.796875 Z M 41.140625 -53.796875 "/></g></g></g><g fill="#ffffff" fill-opacity="1"><g transform="translate(65.356084, 104.515654)"><g><path d="M 31.71875 -83.078125 C 39.738281 -83.078125 46.003906 -80.21875 50.515625 -74.5 C 55.898438 -67.726562 58.59375 -56.5 58.59375 -40.8125 C 58.59375 -25.15625 55.878906 -13.90625 50.453125 -7.0625 C 45.984375 -1.414062 39.738281 1.40625 31.71875 1.40625 C 23.664062 1.40625 17.175781 -1.6875 12.25 -7.875 C 7.320312 -14.0625 4.859375 -25.097656 4.859375 -40.984375 C 4.859375 -56.554688 7.566406 -67.765625 12.984375 -74.609375 C 17.460938 -80.253906 23.707031 -83.078125 31.71875 -83.078125 Z M 31.71875 -69.9375 C 29.800781 -69.9375 28.085938 -69.320312 26.578125 -68.09375 C 25.078125 -66.875 23.910156 -64.679688 23.078125 -61.515625 C 21.992188 -57.421875 21.453125 -50.519531 21.453125 -40.8125 C 21.453125 -31.101562 21.941406 -24.429688 22.921875 -20.796875 C 23.898438 -17.171875 25.128906 -14.753906 26.609375 -13.546875 C 28.097656 -12.335938 29.800781 -11.734375 31.71875 -11.734375 C 33.632812 -11.734375 35.34375 -12.34375 36.84375 -13.5625 C 38.351562 -14.789062 39.523438 -16.988281 40.359375 -20.15625 C 41.453125 -24.21875 42 -31.101562 42 -40.8125 C 42 -50.519531 41.507812 -57.1875 40.53125 -60.8125 C 39.550781 -64.445312 38.316406 -66.875 36.828125 -68.09375 C 35.335938 -69.320312 33.632812 -69.9375 31.71875 -69.9375 Z M 31.71875 -69.9375 "/></g></g></g><g fill="#ffffff" fill-opacity="1"><g transform="translate(129.645881, 104.515654)"><g><path d="M 31.71875 -83.078125 C 39.738281 -83.078125 46.003906 -80.21875 50.515625 -74.5 C 55.898438 -67.726562 58.59375 -56.5 58.59375 -40.8125 C 58.59375 -25.15625 55.878906 -13.90625 50.453125 -7.0625 C 45.984375 -1.414062 39.738281 1.40625 31.71875 1.40625 C 23.664062 1.40625 17.175781 -1.6875 12.25 -7.875 C 7.320312 -14.0625 4.859375 -25.097656 4.859375 -40.984375 C 4.859375 -56.554688 7.566406 -67.765625 12.984375 -74.609375 C 17.460938 -80.253906 23.707031 -83.078125 31.71875 -83.078125 Z M 31.71875 -69.9375 C 29.800781 -69.9375 28.085938 -69.320312 26.578125 -68.09375 C 25.078125 -66.875 23.910156 -64.679688 23.078125 -61.515625 C 21.992188 -57.421875 21.453125 -50.519531 21.453125 -40.8125 C 21.453125 -31.101562 21.941406 -24.429688 22.921875 -20.796875 C 23.898438 -17.171875 25.128906 -14.753906 26.609375 -13.546875 C 28.097656 -12.335938 29.800781 -11.734375 31.71875 -11.734375 C 33.632812 -11.734375 35.34375 -12.34375 36.84375 -13.5625 C 38.351562 -14.789062 39.523438 -16.988281 40.359375 -20.15625 C 41.453125 -24.21875 42 -31.101562 42 -40.8125 C 42 -50.519531 41.507812 -57.1875 40.53125 -60.8125 C 39.550781 -64.445312 38.316406 -66.875 36.828125 -68.09375 C 35.335938 -69.320312 33.632812 -69.9375 31.71875 -69.9375 Z M 31.71875 -69.9375 "/></g></g></g></g></g></svg>