<svg xmlns="http://www.w3.org/2000/svg" version="1.1" xmlns:xlink="http://www.w3.org/1999/xlink" width="1000" height="1000"><g clip-path="url(#SvgjsClipPath1022)"><rect width="1000" height="1000" fill="#ffffff"></rect><g transform="matrix(1.4,0,0,1.4,150,150)"><svg xmlns="http://www.w3.org/2000/svg" version="1.1" xmlns:xlink="http://www.w3.org/1999/xlink" width="500" height="500"><svg xmlns="http://www.w3.org/2000/svg" xmlns:xlink="http://www.w3.org/1999/xlink" width="500" zoomAndPan="magnify" viewBox="0 0 375 374.999991" height="500" preserveAspectRatio="xMidYMid meet" version="1.0"><defs><g></g><clipPath id="f4379acf60"><rect x="0" width="375" y="0" height="253"></rect></clipPath><clipPath id="SvgjsClipPath1022"><rect width="1000" height="1000" x="0" y="0" rx="350" ry="350"></rect></clipPath></defs><g transform="matrix(1, 0, 0, 1, 0, 60)"><g clip-path="url(#f4379acf60)"><g fill="#00357a" fill-opacity="1"><g transform="translate(0.0000045, 203.359735)"><g><path d="M 10.203125 -37.203125 L 40.0625 -40.5 C 40.789062 -34.425781 42.691406 -29.925781 45.765625 -27 C 48.835938 -24.070312 52.898438 -22.609375 57.953125 -22.609375 C 64.316406 -22.609375 69.726562 -25.535156 74.1875 -31.390625 C 78.65625 -37.242188 81.507812 -49.390625 82.75 -67.828125 C 75 -58.828125 65.304688 -54.328125 53.671875 -54.328125 C 41.015625 -54.328125 30.09375 -59.207031 20.90625 -68.96875 C 11.726562 -78.738281 7.140625 -91.453125 7.140625 -107.109375 C 7.140625 -123.429688 11.984375 -136.582031 21.671875 -146.5625 C 31.367188 -156.550781 43.71875 -161.546875 58.71875 -161.546875 C 75.03125 -161.546875 88.414062 -155.234375 98.875 -142.609375 C 109.34375 -129.992188 114.578125 -109.238281 114.578125 -80.34375 C 114.578125 -50.925781 109.125 -29.703125 98.21875 -16.671875 C 87.320312 -3.648438 73.128906 2.859375 55.640625 2.859375 C 43.054688 2.859375 32.882812 -0.488281 25.125 -7.1875 C 17.375 -13.882812 12.398438 -23.890625 10.203125 -37.203125 Z M 80 -104.59375 C 80 -114.539062 77.710938 -122.257812 73.140625 -127.75 C 68.566406 -133.238281 63.28125 -135.984375 57.28125 -135.984375 C 51.582031 -135.984375 46.847656 -133.734375 43.078125 -129.234375 C 39.304688 -124.734375 37.421875 -117.359375 37.421875 -107.109375 C 37.421875 -96.722656 39.46875 -89.097656 43.5625 -84.234375 C 47.664062 -79.367188 52.789062 -76.9375 58.9375 -76.9375 C 64.863281 -76.9375 69.851562 -79.273438 73.90625 -83.953125 C 77.96875 -88.640625 80 -95.519531 80 -104.59375 Z M 80 -104.59375 "></path></g></g></g><g fill="#00357a" fill-opacity="1"><g transform="translate(125.001279, 203.359735)"><g><path d="M 61.671875 -161.546875 C 77.265625 -161.546875 89.445312 -155.988281 98.21875 -144.875 C 108.6875 -131.695312 113.921875 -109.851562 113.921875 -79.34375 C 113.921875 -48.90625 108.648438 -27.03125 98.109375 -13.71875 C 89.410156 -2.738281 77.265625 2.75 61.671875 2.75 C 46.015625 2.75 33.394531 -3.265625 23.8125 -15.296875 C 14.226562 -27.335938 9.4375 -48.796875 9.4375 -79.671875 C 9.4375 -109.960938 14.707031 -131.769531 25.25 -145.09375 C 33.945312 -156.0625 46.085938 -161.546875 61.671875 -161.546875 Z M 61.671875 -135.984375 C 57.941406 -135.984375 54.613281 -134.789062 51.6875 -132.40625 C 48.757812 -130.03125 46.492188 -125.769531 44.890625 -119.625 C 42.765625 -111.644531 41.703125 -98.21875 41.703125 -79.34375 C 41.703125 -60.46875 42.648438 -47.5 44.546875 -40.4375 C 46.453125 -33.382812 48.847656 -28.6875 51.734375 -26.34375 C 54.628906 -24 57.941406 -22.828125 61.671875 -22.828125 C 65.410156 -22.828125 68.742188 -24.015625 71.671875 -26.390625 C 74.597656 -28.773438 76.863281 -33.039062 78.46875 -39.1875 C 80.59375 -47.082031 81.65625 -60.46875 81.65625 -79.34375 C 81.65625 -98.21875 80.703125 -111.1875 78.796875 -118.25 C 76.898438 -125.3125 74.503906 -130.03125 71.609375 -132.40625 C 68.722656 -134.789062 65.410156 -135.984375 61.671875 -135.984375 Z M 61.671875 -135.984375 "></path></g></g></g><g fill="#00357a" fill-opacity="1"><g transform="translate(250.002553, 203.359735)"><g><path d="M 61.671875 -161.546875 C 77.265625 -161.546875 89.445312 -155.988281 98.21875 -144.875 C 108.6875 -131.695312 113.921875 -109.851562 113.921875 -79.34375 C 113.921875 -48.90625 108.648438 -27.03125 98.109375 -13.71875 C 89.410156 -2.738281 77.265625 2.75 61.671875 2.75 C 46.015625 2.75 33.394531 -3.265625 23.8125 -15.296875 C 14.226562 -27.335938 9.4375 -48.796875 9.4375 -79.671875 C 9.4375 -109.960938 14.707031 -131.769531 25.25 -145.09375 C 33.945312 -156.0625 46.085938 -161.546875 61.671875 -161.546875 Z M 61.671875 -135.984375 C 57.941406 -135.984375 54.613281 -134.789062 51.6875 -132.40625 C 48.757812 -130.03125 46.492188 -125.769531 44.890625 -119.625 C 42.765625 -111.644531 41.703125 -98.21875 41.703125 -79.34375 C 41.703125 -60.46875 42.648438 -47.5 44.546875 -40.4375 C 46.453125 -33.382812 48.847656 -28.6875 51.734375 -26.34375 C 54.628906 -24 57.941406 -22.828125 61.671875 -22.828125 C 65.410156 -22.828125 68.742188 -24.015625 71.671875 -26.390625 C 74.597656 -28.773438 76.863281 -33.039062 78.46875 -39.1875 C 80.59375 -47.082031 81.65625 -60.46875 81.65625 -79.34375 C 81.65625 -98.21875 80.703125 -111.1875 78.796875 -118.25 C 76.898438 -125.3125 74.503906 -130.03125 71.609375 -132.40625 C 68.722656 -134.789062 65.410156 -135.984375 61.671875 -135.984375 Z M 61.671875 -135.984375 "></path></g></g></g></g></g></svg></svg></g></g></svg>